<svg width="29" height="70" viewBox="0 0 29 70" fill="none" xmlns="http://www.w3.org/2000/svg">
<g clip-path="url(#clip0)">
<path d="M30.9424 21.2499C30.9424 21.5622 30.7429 21.9138 30.4443 22.1484L10.8619 37.4998L30.4443 52.8511C30.7436 53.0857 30.9424 53.4368 30.9424 53.7496C30.9424 54.0624 30.7429 54.4135 30.4443 54.6481L27.9532 56.601C27.6539 56.8356 27.206 56.9915 26.807 56.9915C26.408 56.9915 25.9601 56.8351 25.6609 56.601L2.44049 38.3977C2.14121 38.1631 1.9424 37.812 1.9424 37.4992C1.9424 37.1864 2.14191 36.8353 2.44049 36.6007L25.6609 18.3974C25.9601 18.1628 26.408 18.007 26.807 18.007C27.206 18.007 27.6539 18.1634 27.9532 18.3974L30.4443 20.3503C30.7436 20.5849 30.9424 20.8972 30.9424 21.2488V21.2499Z" fill="#666666"/>
</g>
<defs>
<clipPath id="clip0">
<rect width="29" height="70" fill="white"/>
</clipPath>
</defs>
</svg>
